# Blender v2.93.4 OBJ File: ''
# www.blender.org
mtllib blenderCupolaobj.mtl
o cupola.006
v 0.000000 1.000000 0.000000
v 0.195090 0.980785 0.000000
v 0.178224 0.980785 0.079350
v 0.130541 0.980785 0.144980
v 0.060286 0.980785 0.185542
v -0.020393 0.980785 0.194022
v -0.097545 0.980785 0.168953
v -0.157831 0.980785 0.114671
v -0.190827 0.980785 0.040562
v -0.190827 0.980785 -0.040562
v -0.157831 0.980785 -0.114671
v -0.097545 0.980785 -0.168953
v -0.020392 0.980785 -0.194022
v 0.060286 0.980785 -0.185542
v 0.130541 0.980785 -0.144980
v 0.178224 0.980785 -0.079350
v 0.195090 0.980785 0.000000
v 0.382683 0.923880 0.000000
v 0.349599 0.923880 0.155651
v 0.256065 0.923880 0.284389
v 0.118256 0.923880 0.363954
v -0.040001 0.923880 0.380587
v -0.191342 0.923880 0.331414
v -0.309597 0.923880 0.224936
v -0.374321 0.923880 0.079564
v -0.374321 0.923880 -0.079564
v -0.309597 0.923880 -0.224936
v -0.191342 0.923880 -0.331414
v -0.040001 0.923880 -0.380587
v 0.118256 0.923880 -0.363954
v 0.256065 0.923880 -0.284389
v 0.349599 0.923880 -0.155651
v 0.382683 0.923880 0.000000
v 0.555570 0.831470 0.000000
v 0.507539 0.831470 0.225971
v 0.371749 0.831470 0.412869
v 0.171681 0.831470 0.528379
v -0.058073 0.831470 0.552527
v -0.277785 0.831470 0.481138
v -0.449466 0.831470 0.326556
v -0.543430 0.831470 0.115510
v -0.543430 0.831470 -0.115510
v -0.449466 0.831470 -0.326556
v -0.277785 0.831470 -0.481138
v -0.058073 0.831470 -0.552527
v 0.171681 0.831470 -0.528379
v 0.371749 0.831470 -0.412869
v 0.507539 0.831470 -0.225971
v 0.555570 0.831470 0.000000
v 0.707107 0.707107 0.000000
v 0.645974 0.707107 0.287606
v 0.473147 0.707107 0.525483
v 0.218508 0.707107 0.672499
v -0.073913 0.707107 0.703233
v -0.353553 0.707107 0.612372
v -0.572062 0.707107 0.415627
v -0.691655 0.707107 0.147016
v -0.691655 0.707107 -0.147016
v -0.572061 0.707107 -0.415627
v -0.353553 0.707107 -0.612372
v -0.073913 0.707107 -0.703233
v 0.218508 0.707107 -0.672498
v 0.473147 0.707107 -0.525482
v 0.645974 0.707107 -0.287606
v 0.707107 0.707107 0.000000
v 0.831470 0.555570 0.000000
v 0.759585 0.555570 0.338189
v 0.556362 0.555570 0.617902
v 0.256938 0.555570 0.790775
v -0.086912 0.555570 0.826915
v -0.415735 0.555570 0.720074
v -0.672673 0.555570 0.488725
v -0.813300 0.555570 0.172872
v -0.813300 0.555570 -0.172872
v -0.672673 0.555570 -0.488726
v -0.415735 0.555570 -0.720074
v -0.086912 0.555570 -0.826915
v 0.256939 0.555570 -0.790774
v 0.556362 0.555570 -0.617902
v 0.759585 0.555570 -0.338189
v 0.831470 0.555570 0.000000
v 0.923880 0.382683 0.000000
v 0.844006 0.382683 0.375776
v 0.618196 0.382683 0.686576
v 0.285494 0.382683 0.878662
v -0.096572 0.382683 0.918818
v -0.461940 0.382683 0.800103
v -0.747434 0.382683 0.543043
v -0.903691 0.382683 0.192085
v -0.903691 0.382683 -0.192085
v -0.747434 0.382683 -0.543043
v -0.461940 0.382683 -0.800103
v -0.096572 0.382683 -0.918818
v 0.285495 0.382683 -0.878661
v 0.618196 0.382683 -0.686576
v 0.844006 0.382683 -0.375776
v 0.923880 0.382683 0.000000
v 0.980785 0.195090 0.000000
v 0.895992 0.195090 0.398921
v 0.656273 0.195090 0.728866
v 0.303079 0.195090 0.932782
v -0.102520 0.195090 0.975412
v -0.490393 0.195090 0.849385
v -0.793472 0.195090 0.576491
v -0.959353 0.195090 0.203917
v -0.959353 0.195090 -0.203917
v -0.793472 0.195090 -0.576491
v -0.490393 0.195090 -0.849385
v -0.102520 0.195090 -0.975412
v 0.303080 0.195090 -0.932782
v 0.656274 0.195090 -0.728865
v 0.895992 0.195090 -0.398921
v 0.980785 0.195090 0.000000
v 1.000000 0.000000 0.000000
v 0.913545 -0.000000 0.406737
v 0.669131 -0.000000 0.743145
v 0.309017 -0.000000 0.951057
v -0.104529 -0.000000 0.994522
v -0.500000 -0.000000 0.866025
v -0.809017 -0.000000 0.587785
v -0.978148 -0.000000 0.207912
v -0.978148 0.000000 -0.207912
v -0.809017 0.000000 -0.587785
v -0.500000 0.000000 -0.866025
v -0.104528 0.000000 -0.994522
v 0.309018 0.000000 -0.951056
v 0.669131 0.000000 -0.743144
v 0.913546 0.000000 -0.406736
v 1.000000 0.000000 0.000000
v 0.980785 -0.195090 -0.000000
v 0.895992 -0.195090 0.398921
v 0.656273 -0.195090 0.728866
v 0.303079 -0.195090 0.932782
v -0.102520 -0.195090 0.975412
v -0.490393 -0.195090 0.849385
v -0.793472 -0.195090 0.576491
v -0.959353 -0.195090 0.203917
v -0.959353 -0.195090 -0.203917
v -0.793472 -0.195090 -0.576491
v -0.490393 -0.195090 -0.849385
v -0.102520 -0.195090 -0.975412
v 0.303080 -0.195090 -0.932782
v 0.656274 -0.195090 -0.728865
v 0.895992 -0.195090 -0.398921
v 0.980785 -0.195090 -0.000000
v 0.923880 -0.382683 -0.000000
v 0.844006 -0.382683 0.375776
v 0.618196 -0.382683 0.686576
v 0.285494 -0.382683 0.878662
v -0.096572 -0.382683 0.918818
v -0.461940 -0.382683 0.800103
v -0.747434 -0.382683 0.543043
v -0.903691 -0.382683 0.192085
v -0.903691 -0.382683 -0.192085
v -0.747434 -0.382683 -0.543043
v -0.461940 -0.382683 -0.800103
v -0.096572 -0.382683 -0.918818
v 0.285495 -0.382683 -0.878661
v 0.618196 -0.382683 -0.686576
v 0.844006 -0.382683 -0.375776
v 0.923880 -0.382683 -0.000000
v 0.831470 -0.555570 -0.000000
v 0.759585 -0.555570 0.338189
v 0.556362 -0.555570 0.617902
v 0.256938 -0.555570 0.790775
v -0.086912 -0.555570 0.826915
v -0.415735 -0.555570 0.720074
v -0.672673 -0.555570 0.488725
v -0.813300 -0.555570 0.172872
v -0.813300 -0.555570 -0.172872
v -0.672673 -0.555570 -0.488726
v -0.415735 -0.555570 -0.720074
v -0.086912 -0.555570 -0.826915
v 0.256939 -0.555570 -0.790774
v 0.556362 -0.555570 -0.617902
v 0.759585 -0.555570 -0.338189
v 0.831470 -0.555570 -0.000000
v 0.707107 -0.707107 -0.000000
v 0.645974 -0.707107 0.287606
v 0.473147 -0.707107 0.525483
v 0.218508 -0.707107 0.672499
v -0.073913 -0.707107 0.703233
v -0.353553 -0.707107 0.612372
v -0.572062 -0.707107 0.415627
v -0.691655 -0.707107 0.147016
v -0.691655 -0.707107 -0.147016
v -0.572061 -0.707107 -0.415627
v -0.353553 -0.707107 -0.612372
v -0.073913 -0.707107 -0.703233
v 0.218508 -0.707107 -0.672498
v 0.473147 -0.707107 -0.525482
v 0.645974 -0.707107 -0.287606
v 0.707107 -0.707107 -0.000000
o Icosphere
v 0.000000 -1.000000 0.000000
v 0.276388 0.447220 0.850649
v -0.723607 0.447220 0.525725
v -0.723607 0.447220 -0.525725
v 0.276388 0.447220 -0.850649
v 0.894426 0.447216 0.000000
v 0.000000 1.000000 0.000000
v -0.077607 -0.967950 0.238853
v 0.203181 -0.967950 0.147618
v 0.425323 -0.850654 0.309011
v 0.203181 -0.967950 -0.147618
v 0.956626 0.251149 0.147618
v 0.951058 -0.000000 0.309013
v 0.860698 -0.251151 0.442858
v 0.860698 -0.251151 -0.442858
v 0.951058 0.000000 -0.309013
v 0.956626 0.251149 -0.147618
v 0.155215 0.251152 0.955422
v 0.000000 -0.000000 1.000000
v -0.155215 -0.251152 0.955422
v 0.687159 -0.251152 0.681715
v 0.587786 0.000000 0.809017
v 0.436007 0.251152 0.864188
v -0.860698 0.251151 0.442858
v -0.951058 -0.000000 0.309013
v -0.956626 -0.251149 0.147618
v -0.436007 -0.251152 0.864188
v -0.587786 0.000000 0.809017
v -0.687159 0.251152 0.681715
v -0.687159 0.251152 -0.681715
v -0.587786 -0.000000 -0.809017
v -0.436007 -0.251152 -0.864188
v -0.956626 -0.251149 -0.147618
v -0.951058 0.000000 -0.309013
v -0.860698 0.251151 -0.442858
v 0.436007 0.251152 -0.864188
v 0.587786 -0.000000 -0.809017
v 0.687159 -0.251152 -0.681715
v -0.155215 -0.251152 -0.955422
v 0.000000 0.000000 -1.000000
v 0.155215 0.251152 -0.955422
v 0.831051 0.502299 0.238853
v 0.688189 0.525736 0.499997
v 0.483971 0.502302 0.716565
v 0.029639 0.502302 0.864184
v -0.262869 0.525738 0.809012
v -0.531941 0.502302 0.681712
v -0.812729 0.502301 0.295238
v -0.850648 0.525736 0.000000
v -0.812729 0.502301 -0.295238
v -0.531941 0.502302 -0.681712
v -0.262869 0.525738 -0.809012
v 0.029639 0.502302 -0.864184
v 0.483971 0.502302 -0.716565
v 0.688189 0.525736 -0.499997
v 0.831051 0.502299 -0.238853
v 0.077607 0.967950 0.238853
v 0.162456 0.850654 0.499995
v 0.232822 0.657519 0.716563
v 0.753442 0.657515 0.000000
v 0.525730 0.850652 0.000000
v 0.251147 0.967949 0.000000
v -0.203181 0.967950 0.147618
v -0.425323 0.850654 0.309011
v -0.609547 0.657519 0.442856
v -0.203181 0.967950 -0.147618
v -0.425323 0.850654 -0.309011
v -0.609547 0.657519 -0.442856
v 0.077607 0.967950 -0.238853
v 0.162456 0.850654 -0.499995
v 0.232822 0.657519 -0.716563
v 0.361800 0.894429 -0.262863
v 0.638194 0.723610 -0.262864
v 0.447209 0.723612 -0.525728
v -0.138197 0.894430 -0.425319
v -0.052790 0.723612 -0.688185
v -0.361804 0.723612 -0.587778
v -0.447210 0.894429 0.000000
v -0.670817 0.723611 -0.162457
v -0.670817 0.723611 0.162457
v -0.138197 0.894430 0.425319
v -0.361804 0.723612 0.587778
v -0.052790 0.723612 0.688185
v 0.361800 0.894429 0.262863
v 0.447209 0.723612 0.525728
v 0.638194 0.723610 0.262864
v 0.861804 0.276396 -0.425322
v 0.809019 0.000000 -0.587782
v 0.670821 0.276397 -0.688189
v -0.138199 0.276397 -0.951055
v -0.309016 -0.000000 -0.951057
v -0.447215 0.276397 -0.850649
v -0.947213 0.276396 -0.162458
v -1.000000 0.000001 0.000000
v -0.947213 0.276397 0.162458
v -0.447216 0.276397 0.850648
v -0.309017 -0.000001 0.951056
v -0.138199 0.276397 0.951055
v 0.670820 0.276396 0.688190
v 0.809019 -0.000002 0.587783
v 0.861804 0.276394 0.425323
v 0.309017 -0.000000 -0.951056
v 0.447216 -0.276398 -0.850648
v 0.138199 -0.276398 -0.951055
v -0.809018 -0.000000 -0.587783
v -0.670819 -0.276397 -0.688191
v -0.861803 -0.276396 -0.425324
v -0.809018 0.000000 0.587783
v -0.861803 -0.276396 0.425324
v -0.670819 -0.276397 0.688191
v 0.309017 0.000000 0.951056
v 0.138199 -0.276398 0.951055
v 0.447216 -0.276398 0.850648
v 1.000000 0.000000 0.000000
v 0.947213 -0.276396 0.162458
v 0.947213 -0.276396 -0.162458
v 0.447211 -0.894428 0.000001
v 0.138199 -0.894429 0.425321
vt 0.181819 0.000000
vt 0.204546 0.039365
vt 0.159092 0.039365
vt 0.181819 0.314921
vt 0.227273 0.314921
vt 0.204546 0.354286
vt 0.000000 0.314921
vt 0.045455 0.314921
vt 0.022727 0.354286
vt 0.727273 0.314921
vt 0.772727 0.314921
vt 0.750000 0.354286
vt 0.545455 0.314921
vt 0.590909 0.314921
vt 0.568182 0.354286
vt 0.363637 0.314921
vt 0.409091 0.314921
vt 0.386364 0.354286
vt 0.431819 0.433017
vt 0.477273 0.433017
vt 0.454546 0.472382
vt 0.409091 0.393651
vt 0.454546 0.393651
vt 0.431819 0.354286
vt 0.500000 0.393651
vt 0.477273 0.354286
vt 0.522728 0.354286
vt 0.454546 0.314921
vt 0.500000 0.314921
vt 0.613637 0.433017
vt 0.659091 0.433017
vt 0.636364 0.472382
vt 0.590909 0.393651
vt 0.636364 0.393651
vt 0.613637 0.354286
vt 0.681818 0.393651
vt 0.659091 0.354286
vt 0.704546 0.354286
vt 0.636364 0.314921
vt 0.681818 0.314921
vt 0.795455 0.433017
vt 0.840909 0.433017
vt 0.818182 0.472382
vt 0.772727 0.393651
vt 0.818182 0.393651
vt 0.795455 0.354286
vt 0.863636 0.393651
vt 0.840909 0.354286
vt 0.886364 0.354286
vt 0.818182 0.314921
vt 0.863636 0.314921
vt 0.909091 0.314921
vt 0.068182 0.433017
vt 0.113637 0.433017
vt 0.090910 0.472382
vt 0.045455 0.393651
vt 0.090910 0.393651
vt 0.068182 0.354286
vt 0.136365 0.393651
vt 0.113637 0.354286
vt 0.159092 0.354286
vt 0.090909 0.314921
vt 0.136364 0.314921
vt 0.250001 0.433017
vt 0.295455 0.433017
vt 0.272728 0.472382
vt 0.227273 0.393651
vt 0.272728 0.393651
vt 0.250001 0.354286
vt 0.318182 0.393651
vt 0.295455 0.354286
vt 0.340910 0.354286
vt 0.272728 0.314921
vt 0.318182 0.314921
vt 0.386364 0.275556
vt 0.409091 0.236191
vt 0.431819 0.275556
vt 0.431819 0.196826
vt 0.454546 0.236191
vt 0.477273 0.275556
vt 0.477273 0.196826
vt 0.500000 0.236191
vt 0.522728 0.275556
vt 0.568182 0.275556
vt 0.590909 0.236191
vt 0.613637 0.275556
vt 0.613637 0.196826
vt 0.636364 0.236191
vt 0.659091 0.275556
vt 0.659091 0.196826
vt 0.681818 0.236191
vt 0.704546 0.275556
vt 0.750000 0.275556
vt 0.772727 0.236191
vt 0.795455 0.275556
vt 0.795455 0.196826
vt 0.818182 0.236191
vt 0.840909 0.275556
vt 0.840909 0.196826
vt 0.863636 0.236191
vt 0.886364 0.275556
vt 0.022727 0.275556
vt 0.045455 0.236191
vt 0.068182 0.275556
vt 0.068182 0.196826
vt 0.090910 0.236191
vt 0.113637 0.275556
vt 0.113637 0.196826
vt 0.136364 0.236191
vt 0.159092 0.275556
vt 0.204546 0.275556
vt 0.227273 0.236191
vt 0.250001 0.275556
vt 0.250001 0.196826
vt 0.272728 0.236191
vt 0.295455 0.275556
vt 0.295455 0.196826
vt 0.318182 0.236191
vt 0.340910 0.275556
vt 0.545455 0.236191
vt 0.522728 0.196826
vt 0.568182 0.196826
vt 0.727273 0.236191
vt 0.704546 0.196826
vt 0.750000 0.196826
vt 0.931818 0.275556
vt 0.909091 0.236191
vt 0.886364 0.196826
vt 0.954545 0.236191
vt 0.931818 0.196826
vt 0.977273 0.196826
vt 0.181819 0.236191
vt 0.159092 0.196826
vt 0.204546 0.196826
vt 0.363637 0.236191
vt 0.340910 0.196826
vt 0.386364 0.196826
vt 0.318182 0.078731
vt 0.340910 0.039365
vt 0.363637 0.078730
vt 0.386364 0.039365
vt 0.363637 0.000000
vt 0.181819 0.078731
vt 0.227273 0.078731
vn 0.0482 -0.9878 0.1482
vn 0.3427 0.5545 0.7583
vn -0.6153 0.5545 0.5603
vn -0.7230 0.5545 -0.4121
vn 0.1685 0.5545 -0.8149
vn 0.8271 0.5545 -0.0916
vn 0.1261 0.9878 -0.0916
vn 0.3912 0.9158 -0.0914
vn 0.6441 0.7594 -0.0915
vn 0.2334 0.9575 -0.1696
vn 0.2079 0.9158 -0.3438
vn 0.5168 0.8363 -0.1830
vn 0.4911 0.7947 -0.3568
vn 0.3338 0.8363 -0.4350
vn 0.2860 0.7594 -0.5843
vn 0.7520 0.6369 -0.1696
vn 0.7261 0.5955 -0.3438
vn 0.5987 0.6726 -0.4350
vn 0.5513 0.5955 -0.5843
vn 0.3936 0.6369 -0.6628
vn 0.3427 0.5545 -0.7583
vn -0.0482 0.9878 -0.1482
vn 0.0339 0.9158 -0.4003
vn 0.1121 0.7594 -0.6409
vn -0.0891 0.9575 -0.2743
vn -0.2627 0.9158 -0.3039
vn -0.0144 0.8363 -0.5481
vn -0.1876 0.7947 -0.5773
vn -0.3105 0.8363 -0.4519
vn -0.4674 0.7594 -0.4526
vn 0.0711 0.6369 -0.7676
vn -0.1026 0.5955 -0.7968
vn -0.2287 0.6726 -0.7038
vn -0.3854 0.5955 -0.7049
vn -0.5087 0.6369 -0.5792
vn -0.6153 0.5545 -0.5603
vn -0.1558 0.9878 0.0000
vn -0.3702 0.9158 -0.1560
vn -0.5749 0.7594 -0.3046
vn -0.2885 0.9575 0.0000
vn -0.3702 0.9158 0.1560
vn -0.5257 0.8363 -0.1557
vn -0.6071 0.7947 0.0000
vn -0.5257 0.8363 0.1557
vn -0.5749 0.7594 0.3046
vn -0.7081 0.6369 -0.3049
vn -0.7895 0.5955 -0.1487
vn -0.7400 0.6726 0.0000
vn -0.7895 0.5955 0.1487
vn -0.7081 0.6369 0.3049
vn -0.7230 0.5545 0.4121
vn -0.0482 0.9878 0.1482
vn -0.2627 0.9158 0.3039
vn -0.4674 0.7594 0.4526
vn -0.0891 0.9575 0.2743
vn 0.0339 0.9158 0.4003
vn -0.3105 0.8363 0.4519
vn -0.1876 0.7947 0.5773
vn -0.0144 0.8363 0.5481
vn 0.1121 0.7594 0.6409
vn -0.5087 0.6369 0.5792
vn -0.3854 0.5955 0.7049
vn -0.2287 0.6726 0.7038
vn -0.1026 0.5955 0.7968
vn 0.0711 0.6369 0.7676
vn 0.1685 0.5545 0.8149
vn 0.1261 0.9878 0.0916
vn 0.2079 0.9158 0.3438
vn 0.2860 0.7594 0.5843
vn 0.2334 0.9575 0.1696
vn 0.3912 0.9158 0.0915
vn 0.3338 0.8363 0.4350
vn 0.4911 0.7947 0.3568
vn 0.5168 0.8363 0.1830
vn 0.6441 0.7594 0.0915
vn 0.3936 0.6369 0.6628
vn 0.5513 0.5955 0.5843
vn 0.5987 0.6726 0.4350
vn 0.7261 0.5955 0.3438
vn 0.7520 0.6369 0.1696
vn 0.8271 0.5545 0.0916
vn 0.9050 0.3987 -0.1482
vn 0.9366 0.1745 -0.3039
vn 0.8883 -0.0784 -0.4526
vn 0.8963 0.3485 -0.2743
vn 0.8039 0.4399 -0.4003
vn 0.8869 0.0962 -0.4519
vn 0.7947 0.1876 -0.5773
vn 0.7544 0.3611 -0.5481
vn 0.6291 0.4399 -0.6409
vn 0.7972 -0.1702 -0.5792
vn 0.7049 -0.0784 -0.7049
vn 0.7038 0.0962 -0.7038
vn 0.5785 0.1745 -0.7968
vn 0.5379 0.3485 -0.7676
vn 0.4206 0.3987 -0.8149
vn 0.1387 0.3987 -0.9065
vn 0.0004 0.1745 -0.9846
vn -0.1560 -0.0784 -0.9846
vn 0.0160 0.3485 -0.9372
vn -0.1323 0.4399 -0.8883
vn -0.1557 0.0962 -0.9831
vn -0.3035 0.1876 -0.9342
vn -0.2882 0.3611 -0.8869
vn -0.4151 0.4399 -0.7964
vn -0.3045 -0.1702 -0.9372
vn -0.4526 -0.0784 -0.8883
vn -0.4519 0.0962 -0.8869
vn -0.5791 0.1745 -0.7964
vn -0.5638 0.3485 -0.7488
vn -0.6451 0.3987 -0.6519
vn -0.8193 0.3987 -0.4121
vn -0.9363 0.1745 -0.3046
vn -0.9846 -0.0784 -0.1560
vn -0.8864 0.3485 -0.3049
vn -0.8857 0.4399 -0.1487
vn -0.9831 0.0962 -0.1557
vn -0.9822 0.1876 0.0000
vn -0.9325 0.3611 0.0000
vn -0.8857 0.4399 0.1487
vn -0.9854 -0.1702 0.0000
vn -0.9846 -0.0784 0.1560
vn -0.9831 0.0962 0.1557
vn -0.9363 0.1745 0.3046
vn -0.8864 0.3485 0.3049
vn -0.8193 0.3987 0.4121
vn -0.6451 0.3987 0.6519
vn -0.5791 0.1745 0.7964
vn -0.4526 -0.0784 0.8883
vn -0.5638 0.3485 0.7488
vn -0.4151 0.4399 0.7964
vn -0.4519 0.0962 0.8869
vn -0.3035 0.1876 0.9342
vn -0.2882 0.3611 0.8869
vn -0.1323 0.4399 0.8883
vn -0.3045 -0.1702 0.9372
vn -0.1560 -0.0784 0.9846
vn -0.1557 0.0962 0.9831
vn 0.0004 0.1745 0.9846
vn 0.0160 0.3485 0.9372
vn 0.1387 0.3987 0.9065
vn 0.4206 0.3987 0.8149
vn 0.5785 0.1745 0.7968
vn 0.7049 -0.0784 0.7049
vn 0.5379 0.3485 0.7676
vn 0.6291 0.4399 0.6409
vn 0.7038 0.0962 0.7038
vn 0.7947 0.1876 0.5773
vn 0.7544 0.3611 0.5481
vn 0.8039 0.4399 0.4003
vn 0.7972 -0.1702 0.5792
vn 0.8883 -0.0784 0.4526
vn 0.8869 0.0962 0.4519
vn 0.9366 0.1745 0.3039
vn 0.8963 0.3485 0.2744
vn 0.9050 0.3987 0.1482
vn 0.2945 0.3024 -0.9065
vn 0.4526 0.0784 -0.8883
vn 0.5791 -0.1745 -0.7964
vn 0.3045 0.1702 -0.9372
vn 0.1560 0.0784 -0.9846
vn 0.4519 -0.0962 -0.8869
vn 0.3035 -0.1876 -0.9342
vn 0.1557 -0.0962 -0.9831
vn -0.0004 -0.1745 -0.9846
vn -0.7711 0.3024 -0.5603
vn -0.7049 0.0784 -0.7049
vn -0.5785 -0.1745 -0.7968
vn -0.7972 0.1702 -0.5792
vn -0.8883 0.0784 -0.4526
vn -0.7038 -0.0962 -0.7038
vn -0.7947 -0.1876 -0.5773
vn -0.8869 -0.0962 -0.4519
vn -0.9366 -0.1745 -0.3039
vn -0.7711 0.3024 0.5603
vn -0.8883 0.0784 0.4526
vn -0.9366 -0.1745 0.3039
vn -0.7972 0.1702 0.5792
vn -0.7049 0.0784 0.7049
vn -0.8869 -0.0962 0.4519
vn -0.7947 -0.1876 0.5774
vn -0.7038 -0.0962 0.7038
vn -0.5785 -0.1745 0.7968
vn 0.2945 0.3024 0.9065
vn 0.1560 0.0784 0.9846
vn -0.0004 -0.1745 0.9846
vn 0.3045 0.1702 0.9372
vn 0.4526 0.0784 0.8883
vn 0.1557 -0.0962 0.9831
vn 0.3035 -0.1876 0.9342
vn 0.4519 -0.0962 0.8869
vn 0.5791 -0.1745 0.7964
vn 0.9532 0.3024 0.0000
vn 0.9846 0.0784 0.1560
vn 0.9363 -0.1745 0.3046
vn 0.9854 0.1702 0.0000
vn 0.9846 0.0784 -0.1560
vn 0.9831 -0.0962 0.1557
vn 0.9822 -0.1876 0.0000
vn 0.9831 -0.0962 -0.1557
vn 0.9363 -0.1745 -0.3046
vn 0.3702 -0.9158 0.1560
vn 0.2885 -0.9575 0.0000
vn 0.1558 -0.9878 0.0000
vn 0.0891 -0.9575 0.2744
vn 0.2627 -0.9158 0.3039
usemtl None
s off
f 194/1/1 202/2/1 201/3/1
f 195/4/2 237/5/2 252/6/2
f 196/7/3 240/8/3 258/9/3
f 197/10/4 243/11/4 261/12/4
f 198/13/5 246/14/5 264/15/5
f 199/16/6 249/17/6 253/18/6
f 255/19/7 262/20/7 200/21/7
f 254/22/8 265/23/8 255/19/8
f 253/18/9 266/24/9 254/22/9
f 255/19/10 265/23/10 262/20/10
f 265/23/11 263/25/11 262/20/11
f 254/22/12 266/24/12 265/23/12
f 266/24/13 267/26/13 265/23/13
f 265/23/14 267/26/14 263/25/14
f 267/26/15 264/27/15 263/25/15
f 253/18/16 249/17/16 266/24/16
f 249/17/17 248/28/17 266/24/17
f 266/24/18 248/28/18 267/26/18
f 248/28/19 247/29/19 267/26/19
f 267/26/20 247/29/20 264/27/20
f 247/29/21 198/13/21 264/27/21
f 262/30/22 259/31/22 200/32/22
f 263/33/23 268/34/23 262/30/23
f 264/15/24 269/35/24 263/33/24
f 262/30/25 268/34/25 259/31/25
f 268/34/26 260/36/26 259/31/26
f 263/33/27 269/35/27 268/34/27
f 269/35/28 270/37/28 268/34/28
f 268/34/29 270/37/29 260/36/29
f 270/37/30 261/38/30 260/36/30
f 264/15/31 246/14/31 269/35/31
f 246/14/32 245/39/32 269/35/32
f 269/35/33 245/39/33 270/37/33
f 245/39/34 244/40/34 270/37/34
f 270/37/35 244/40/35 261/38/35
f 244/40/36 197/10/36 261/38/36
f 259/41/37 256/42/37 200/43/37
f 260/44/38 271/45/38 259/41/38
f 261/12/39 272/46/39 260/44/39
f 259/41/40 271/45/40 256/42/40
f 271/45/41 257/47/41 256/42/41
f 260/44/42 272/46/42 271/45/42
f 272/46/43 273/48/43 271/45/43
f 271/45/44 273/48/44 257/47/44
f 273/48/45 258/49/45 257/47/45
f 261/12/46 243/11/46 272/46/46
f 243/11/47 242/50/47 272/46/47
f 272/46/48 242/50/48 273/48/48
f 242/50/49 241/51/49 273/48/49
f 273/48/50 241/51/50 258/49/50
f 241/51/51 196/52/51 258/49/51
f 256/53/52 250/54/52 200/55/52
f 257/56/53 274/57/53 256/53/53
f 258/9/54 275/58/54 257/56/54
f 256/53/55 274/57/55 250/54/55
f 274/57/56 251/59/56 250/54/56
f 257/56/57 275/58/57 274/57/57
f 275/58/58 276/60/58 274/57/58
f 274/57/59 276/60/59 251/59/59
f 276/60/60 252/61/60 251/59/60
f 258/9/61 240/8/61 275/58/61
f 240/8/62 239/62/62 275/58/62
f 275/58/63 239/62/63 276/60/63
f 239/62/64 238/63/64 276/60/64
f 276/60/65 238/63/65 252/61/65
f 238/63/66 195/4/66 252/61/66
f 250/64/67 255/65/67 200/66/67
f 251/67/68 277/68/68 250/64/68
f 252/6/69 278/69/69 251/67/69
f 250/64/70 277/68/70 255/65/70
f 277/68/71 254/70/71 255/65/71
f 251/67/72 278/69/72 277/68/72
f 278/69/73 279/71/73 277/68/73
f 277/68/74 279/71/74 254/70/74
f 279/71/75 253/72/75 254/70/75
f 252/6/76 237/5/76 278/69/76
f 237/5/77 236/73/77 278/69/77
f 278/69/78 236/73/78 279/71/78
f 236/73/79 235/74/79 279/71/79
f 279/71/80 235/74/80 253/72/80
f 235/74/81 199/16/81 253/72/81
f 210/75/82 249/17/82 199/16/82
f 209/76/83 280/77/83 210/75/83
f 208/78/84 281/79/84 209/76/84
f 210/75/85 280/77/85 249/17/85
f 280/77/86 248/28/86 249/17/86
f 209/76/87 281/79/87 280/77/87
f 281/79/88 282/80/88 280/77/88
f 280/77/89 282/80/89 248/28/89
f 282/80/90 247/29/90 248/28/90
f 208/78/91 231/81/91 281/79/91
f 231/81/92 230/82/92 281/79/92
f 281/79/93 230/82/93 282/80/93
f 230/82/94 229/83/94 282/80/94
f 282/80/95 229/83/95 247/29/95
f 229/83/96 198/13/96 247/29/96
f 234/84/97 246/14/97 198/13/97
f 233/85/98 283/86/98 234/84/98
f 232/87/99 284/88/99 233/85/99
f 234/84/100 283/86/100 246/14/100
f 283/86/101 245/39/101 246/14/101
f 233/85/102 284/88/102 283/86/102
f 284/88/103 285/89/103 283/86/103
f 283/86/104 285/89/104 245/39/104
f 285/89/105 244/40/105 245/39/105
f 232/87/106 225/90/106 284/88/106
f 225/90/107 224/91/107 284/88/107
f 284/88/108 224/91/108 285/89/108
f 224/91/109 223/92/109 285/89/109
f 285/89/110 223/92/110 244/40/110
f 223/92/111 197/10/111 244/40/111
f 228/93/112 243/11/112 197/10/112
f 227/94/113 286/95/113 228/93/113
f 226/96/114 287/97/114 227/94/114
f 228/93/115 286/95/115 243/11/115
f 286/95/116 242/50/116 243/11/116
f 227/94/117 287/97/117 286/95/117
f 287/97/118 288/98/118 286/95/118
f 286/95/119 288/98/119 242/50/119
f 288/98/120 241/51/120 242/50/120
f 226/96/121 219/99/121 287/97/121
f 219/99/122 218/100/122 287/97/122
f 287/97/123 218/100/123 288/98/123
f 218/100/124 217/101/124 288/98/124
f 288/98/125 217/101/125 241/51/125
f 217/101/126 196/52/126 241/51/126
f 222/102/127 240/8/127 196/7/127
f 221/103/128 289/104/128 222/102/128
f 220/105/129 290/106/129 221/103/129
f 222/102/130 289/104/130 240/8/130
f 289/104/131 239/62/131 240/8/131
f 221/103/132 290/106/132 289/104/132
f 290/106/133 291/107/133 289/104/133
f 289/104/134 291/107/134 239/62/134
f 291/107/135 238/63/135 239/62/135
f 220/105/136 213/108/136 290/106/136
f 213/108/137 212/109/137 290/106/137
f 290/106/138 212/109/138 291/107/138
f 212/109/139 211/110/139 291/107/139
f 291/107/140 211/110/140 238/63/140
f 211/110/141 195/4/141 238/63/141
f 216/111/142 237/5/142 195/4/142
f 215/112/143 292/113/143 216/111/143
f 214/114/144 293/115/144 215/112/144
f 216/111/145 292/113/145 237/5/145
f 292/113/146 236/73/146 237/5/146
f 215/112/147 293/115/147 292/113/147
f 293/115/148 294/116/148 292/113/148
f 292/113/149 294/116/149 236/73/149
f 294/116/150 235/74/150 236/73/150
f 214/114/151 207/117/151 293/115/151
f 207/117/152 206/118/152 293/115/152
f 293/115/153 206/118/153 294/116/153
f 206/118/154 205/119/154 294/116/154
f 294/116/155 205/119/155 235/74/155
f 205/119/156 199/16/156 235/74/156
f 229/83/157 234/84/157 198/13/157
f 230/82/158 295/120/158 229/83/158
f 231/81/159 296/121/159 230/82/159
f 229/83/160 295/120/160 234/84/160
f 295/120/161 233/85/161 234/84/161
f 230/82/162 296/121/162 295/120/162
f 296/121/163 297/122/163 295/120/163
f 295/120/164 297/122/164 233/85/164
f 297/122/165 232/87/165 233/85/165
f 223/92/166 228/93/166 197/10/166
f 224/91/167 298/123/167 223/92/167
f 225/90/168 299/124/168 224/91/168
f 223/92/169 298/123/169 228/93/169
f 298/123/170 227/94/170 228/93/170
f 224/91/171 299/124/171 298/123/171
f 299/124/172 300/125/172 298/123/172
f 298/123/173 300/125/173 227/94/173
f 300/125/174 226/96/174 227/94/174
f 217/101/175 222/126/175 196/52/175
f 218/100/176 301/127/176 217/101/176
f 219/99/177 302/128/177 218/100/177
f 217/101/178 301/127/178 222/126/178
f 301/127/179 221/129/179 222/126/179
f 218/100/180 302/128/180 301/127/180
f 302/128/181 303/130/181 301/127/181
f 301/127/182 303/130/182 221/129/182
f 303/130/183 220/131/183 221/129/183
f 211/110/184 216/111/184 195/4/184
f 212/109/185 304/132/185 211/110/185
f 213/108/186 305/133/186 212/109/186
f 211/110/187 304/132/187 216/111/187
f 304/132/188 215/112/188 216/111/188
f 212/109/189 305/133/189 304/132/189
f 305/133/190 306/134/190 304/132/190
f 304/132/191 306/134/191 215/112/191
f 306/134/192 214/114/192 215/112/192
f 205/119/193 210/75/193 199/16/193
f 206/118/194 307/135/194 205/119/194
f 207/117/195 308/136/195 206/118/195
f 205/119/196 307/135/196 210/75/196
f 307/135/197 209/76/197 210/75/197
f 206/118/198 308/136/198 307/135/198
f 308/136/199 309/137/199 307/135/199
f 307/135/200 309/137/200 209/76/200
f 309/137/201 208/78/201 209/76/201
f 203/138/202 202/139/202 310/140/202
f 310/140/203 202/139/203 204/141/203
f 202/139/204 194/142/204 204/141/204
f 201/3/205 202/2/205 311/143/205
f 202/2/206 203/144/206 311/143/206
